PathFileType	4	(X/Y/Z)	/Users/itak/Documents/Research/Walk-IL/dataset/trc/00421_00012.trc
DataRate	CameraRate	NumFrames	NumMarkers	Units	OrigDataRate	OrigDataStartFrame	OrigNumFrames
100.000000	100.000000	4	53	mm	100.000000	70	564
Frame#	Time	RPSI			LPSI			L3			STRN			T10			C7			CLAV			RBAK			LBAK			LSHO			LUPA			LAEL			LAOL			LWTS			LWPS			LFRA			LIFD			LHPS			LHTS			RSHO			RUPA			RAEL			RAOL			RWTS			RWPS			RFRA			RIFD			RHPS			RBHD			LFHD			RFHD			LBHD			LHIP			RHIP			RASI			LASI			LKNE			LTHI			LANK			LTIP			LTOE			LMT1			LMT5			LHEE			RKNE			RTHI			RANK			RTIP			RTOE			RMT1			RMT5			RHEE			RHTS			
		X1	Y1	Z1	X2	Y2	Z2	X3	Y3	Z3	X4	Y4	Z4	X5	Y5	Z5	X6	Y6	Z6	X7	Y7	Z7	X8	Y8	Z8	X9	Y9	Z9	X10	Y10	Z10	X11	Y11	Z11	X12	Y12	Z12	X13	Y13	Z13	X14	Y14	Z14	X15	Y15	Z15	X16	Y16	Z16	X17	Y17	Z17	X18	Y18	Z18	X19	Y19	Z19	X20	Y20	Z20	X21	Y21	Z21	X22	Y22	Z22	X23	Y23	Z23	X24	Y24	Z24	X25	Y25	Z25	X26	Y26	Z26	X27	Y27	Z27	X28	Y28	Z28	X29	Y29	Z29	X30	Y30	Z30	X31	Y31	Z31	X32	Y32	Z32	X33	Y33	Z33	X34	Y34	Z34	X35	Y35	Z35	X36	Y36	Z36	X37	Y37	Z37	X38	Y38	Z38	X39	Y39	Z39	X40	Y40	Z40	X41	Y41	Z41	X42	Y42	Z42	X43	Y43	Z43	X44	Y44	Z44	X45	Y45	Z45	X46	Y46	Z46	X47	Y47	Z47	X48	Y48	Z48	X49	Y49	Z49	X50	Y50	Z50	X51	Y51	Z51	X52	Y52	Z52	X53	Y53	Z53	

71	0.7000000000000001	-1566.38818359375	995.2267456054688	-518.4589233398438	-1571.299072265625	986.07373046875	-649.3695068359375	-1567.068603515625	1058.472045898438	-582.5798950195312	-1335.161376953125	1217.286865234375	-578.1333618164062	-1570.400634765625	1157.95263671875	-585.6124877929688	-1550.337158203125	1409.405029296875	-593.7996826171875	-1392.214599609375	1334.522583007812	-580.5206909179688	-1586.262939453125	1261.130859375	-526.2463989257812	-1554.6435546875	1371.290283203125	-699.8358154296875	-1465.050537109375	1392.041625976562	-743.0548706054688	-1466.363159179688	1274.53857421875	-816.2537841796875	-1419.363037109375	1079.0048828125	-828.7627563476562	-1479.61474609375	1053.7158203125	-774.4410400390625	-1314.489990234375	873.3522338867188	-761.20263671875	-1350.895263671875	854.1571655273438	-830.8317260742188	-1390.037231445312	976.5712890625	-831.080078125	-1296.585693359375	694.7010498046875	-757.5357055664062	-1329.139892578125	771.101806640625	-817.8209838867188	-1282.04736328125	779.373046875	-773.9080200195312	-1492.673583984375	1389.750854492188	-431.3333740234375	-1499.430541992188	1323.149169921875	-372.0916137695312	-1460.3291015625	1061.054809570312	-334.9812927246094	-1478.31689453125	1051.8037109375	-424.5736389160156	-1311.002685546875	859.0889892578125	-362.1743774414062	-1354.744506835938	843.58203125	-304.5468444824219	-1428.563110351562	999.66748046875	-321.0380859375	-1298.56689453125	685.852783203125	-362.285888671875	-1341.491943359375	755.2286987304688	-304.1935119628906	-1513.586669921875	1606.182983398438	-507.1896667480469	-1365.901733398438	1603.906860351562	-642.2263793945312	-1379.929077148438	1611.228271484375	-520.2987060546875	-1512.356323242188	1595.339233398438	-669.3804321289062	-1485.33984375	970.1810302734375	-762.4863891601562	-1484.129760742188	970.27978515625	-404.0466918945312	-1352.261108398438	974.7824096679688	-459.4631042480469	-1370.867309570312	965.5658569335938	-722.1771850585938	-1456.1064453125	475.7212829589844	-736.3125	-1457.845458984375	618.0718994140625	-749.4865112304688	-1550.345336914062	42.66151809692383	-683.7158203125	-1505.634765625	245.4212341308594	-723.1925048828125	-1334.228393554688	45.89158630371094	-622.5272827148438	-1416.801513671875	46.5628662109375	-591.780029296875	-1423.235473632812	40.42024230957031	-697.0195922851562	-1586.068115234375	41.26282119750977	-625.7266235351562	-1458.201049804688	478.6564331054688	-419.1298522949219	-1413.2373046875	741.8372802734375	-403.1307678222656	-1501.83544921875	57.92206192016602	-453.3241271972656	-1449.728881835938	353.1307373046875	-435.3046264648438	-1323.49072265625	41.2890739440918	-520.2317504882812	-1400.356201171875	45.11211395263672	-547.4932250976562	-1416.47705078125	49.39726638793945	-449.7816162109375	-1575.22265625	44.81981658935547	-505.2688293457031	-1286.610595703125	754.9536743164062	-343.4196472167969	
72	0.71	-1566.363525390625	995.2410888671875	-518.6926879882812	-1571.223388671875	986.084716796875	-649.6155395507812	-1567.00634765625	1058.478271484375	-582.8129272460938	-1335.233520507812	1217.237915039062	-578.2670288085938	-1570.45068359375	1157.966674804688	-585.8568115234375	-1550.237670898438	1409.427856445312	-593.98876953125	-1392.232177734375	1334.4951171875	-580.6544189453125	-1586.233276367188	1261.1513671875	-526.4635009765625	-1554.540405273438	1371.32470703125	-700.0363159179688	-1464.95166015625	1392.05810546875	-743.2247314453125	-1466.210693359375	1274.564086914062	-816.4418334960938	-1419.219482421875	1079.028686523438	-828.9260864257812	-1479.4873046875	1053.735229492188	-774.6346435546875	-1314.356201171875	873.4012451171875	-761.2694091796875	-1350.702270507812	854.1954345703125	-830.9348754882812	-1389.91162109375	976.5947265625	-831.1998291015625	-1296.430053710938	694.7777709960938	-757.6082153320312	-1328.779541015625	771.1597290039062	-817.892578125	-1280.972778320312	779.6449584960938	-773.7676391601562	-1492.643920898438	1389.752563476562	-431.5171813964844	-1499.431884765625	1323.151733398438	-372.2810668945312	-1460.326293945312	1061.050903320312	-335.1555786132812	-1478.253784179688	1051.734130859375	-424.7702331542969	-1310.979736328125	859.0689086914062	-362.3473205566406	-1354.867797851562	843.58447265625	-304.7376708984375	-1428.591918945312	999.6556396484375	-321.2256164550781	-1298.573852539062	685.8062744140625	-362.4667358398438	-1341.533203125	755.2146606445312	-304.3756713867188	-1513.453369140625	1606.173095703125	-507.3531188964844	-1365.820068359375	1603.892456054688	-642.3462524414062	-1379.764770507812	1611.104736328125	-520.5274047851562	-1512.27294921875	1595.390991210938	-669.5717163085938	-1485.208129882812	970.1748657226562	-762.6957397460938	-1484.18017578125	970.2931518554688	-404.2744750976562	-1352.359008789062	974.7808227539062	-459.6379699707031	-1370.883544921875	965.52880859375	-722.3323974609375	-1456.178466796875	475.716552734375	-736.4656372070312	-1457.832641601562	618.0562133789062	-749.6424560546875	-1550.327880859375	42.64455413818359	-683.7146606445312	-1505.636596679688	245.3983154296875	-723.257568359375	-1334.252075195312	45.88617706298828	-622.5282592773438	-1416.75	46.60165405273438	-591.7891235351562	-1423.236694335938	40.40214920043945	-697.0321655273438	-1586.069213867188	41.26577758789062	-625.7322998046875	-1458.228271484375	478.6837158203125	-419.2576599121094	-1413.326904296875	741.8444213867188	-403.2392578125	-1501.833129882812	57.92860412597656	-453.3327026367188	-1449.676635742188	353.1574096679688	-435.3670043945312	-1323.49853515625	41.27281188964844	-520.232421875	-1400.35546875	45.10100173950195	-547.4911499023438	-1416.439208984375	49.42111587524414	-449.7899780273438	-1575.21142578125	44.79901885986328	-505.2623901367188	-1286.486572265625	755.01953125	-343.5921936035156	
73	0.72	-1566.335815429688	995.256591796875	-518.9254150390625	-1571.171264648438	986.1022338867188	-649.8651123046875	-1566.943115234375	1058.48583984375	-583.046142578125	-1335.30517578125	1217.197143554688	-578.3948364257812	-1570.497802734375	1157.977416992188	-586.1047973632812	-1550.142333984375	1409.447875976562	-594.1757202148438	-1392.260864257812	1334.471435546875	-580.77587890625	-1586.208740234375	1261.1689453125	-526.6807861328125	-1554.439331054688	1371.35498046875	-700.234619140625	-1464.8544921875	1392.072998046875	-743.3900756835938	-1466.059936523438	1274.588134765625	-816.6257934570312	-1419.088623046875	1079.04931640625	-829.0858154296875	-1479.376342773438	1053.754150390625	-774.8229370117188	-1314.288452148438	873.4158935546875	-761.317626953125	-1350.509155273438	854.2291870117188	-831.0342407226562	-1389.774536132812	976.6175537109375	-831.3104858398438	-1296.280639648438	694.8530883789062	-757.6744995117188	-1328.467895507812	771.2139892578125	-817.9580078125	-1280.0126953125	779.8746948242188	-773.636474609375	-1492.625854492188	1389.751220703125	-431.7005310058594	-1499.425903320312	1323.153442382812	-372.4651794433594	-1460.32568359375	1061.045776367188	-335.3373413085938	-1478.204345703125	1051.678833007812	-424.9760437011719	-1310.9619140625	859.0428466796875	-362.5029602050781	-1355.005981445312	843.5869750976562	-304.9285278320312	-1428.615600585938	999.6411743164062	-321.4078369140625	-1298.576538085938	685.7669677734375	-362.6375427246094	-1341.596435546875	755.199951171875	-304.5571899414062	-1513.321166992188	1606.158813476562	-507.508544921875	-1365.7529296875	1603.867309570312	-642.4547119140625	-1379.644897460938	1610.935913085938	-520.7333984375	-1512.222290039062	1595.45166015625	-669.7474975585938	-1485.073486328125	970.1679077148438	-762.9056396484375	-1484.181762695312	970.3056640625	-404.4831237792969	-1352.445434570312	974.7852783203125	-459.8193664550781	-1370.892333984375	965.488037109375	-722.48681640625	-1456.258056640625	475.712158203125	-736.6195678710938	-1457.838989257812	618.0418090820312	-749.8031005859375	-1550.318115234375	42.62688064575195	-683.7177124023438	-1505.640258789062	245.3735198974609	-723.32373046875	-1334.286743164062	45.87685012817383	-622.5283203125	-1416.6826171875	46.65004348754883	-591.7996215820312	-1423.240478515625	40.38602828979492	-697.0487670898438	-1586.071044921875	41.26281356811523	-625.7366333007812	-1458.275146484375	478.7139587402344	-419.3816528320312	-1413.400390625	741.849365234375	-403.3709411621094	-1501.832885742188	57.9317512512207	-453.3376159667969	-1449.640625	353.1797790527344	-435.4189758300781	-1323.502563476562	41.25822067260742	-520.23291015625	-1400.358520507812	45.09515380859375	-547.4904174804688	-1416.416015625	49.43955993652344	-449.796142578125	-1575.206665039062	44.78619003295898	-505.2603149414062	-1286.440307617188	755.0372314453125	-343.774169921875	
74	0.73	-1566.305908203125	995.273193359375	-519.1566162109375	-1571.144409179688	986.1256103515625	-650.116943359375	-1566.88232421875	1058.497192382812	-583.2789306640625	-1335.365966796875	1217.168090820312	-578.5196533203125	-1570.529907226562	1157.98486328125	-586.3528442382812	-1550.053955078125	1409.46435546875	-594.36181640625	-1392.296142578125	1334.450561523438	-580.8878173828125	-1586.188232421875	1261.183227539062	-526.898681640625	-1554.3388671875	1371.381225585938	-700.4312133789062	-1464.752563476562	1392.087890625	-743.5506591796875	-1465.914306640625	1274.610961914062	-816.8042602539062	-1418.964477539062	1079.067749023438	-829.2427978515625	-1479.27978515625	1053.774047851562	-775.008544921875	-1314.276611328125	873.4012451171875	-761.352294921875	-1350.309936523438	854.2589721679688	-831.130615234375	-1389.627807617188	976.6409912109375	-831.4176635742188	-1296.128784179688	694.929931640625	-757.7380981445312	-1328.21240234375	771.2653198242188	-818.0194702148438	-1279.251342773438	780.0513305664062	-773.5380859375	-1492.61767578125	1389.746704101562	-431.88232421875	-1499.411376953125	1323.153564453125	-372.6443176269531	-1460.3310546875	1061.037963867188	-335.5291137695312	-1478.172119140625	1051.6376953125	-425.1926574707031	-1310.958374023438	859.0089111328125	-362.6437377929688	-1355.154052734375	843.58740234375	-305.1185302734375	-1428.63525390625	999.6229858398438	-321.5858764648438	-1298.59814453125	685.730712890625	-362.8009643554688	-1341.673950195312	755.1826171875	-304.7363586425781	-1513.19384765625	1606.143676757812	-507.6541748046875	-1365.689819335938	1603.83349609375	-642.5549926757812	-1379.575561523438	1610.739868164062	-520.90283203125	-1512.1962890625	1595.517456054688	-669.9065551757812	-1484.937133789062	970.16015625	-763.115478515625	-1484.149291992188	970.318359375	-404.6771545410156	-1352.5126953125	974.7973022460938	-460.0050048828125	-1370.88330078125	965.4478759765625	-722.6431274414062	-1456.333374023438	475.7056274414062	-736.7730712890625	-1457.855102539062	618.02734375	-749.9685668945312	-1550.314086914062	42.60756683349609	-683.725341796875	-1505.651000976562	245.3497161865234	-723.3942260742188	-1334.32470703125	45.86685562133789	-622.5279541015625	-1416.607421875	46.70337295532227	-591.8116455078125	-1423.244018554688	40.37204360961914	-697.0698852539062	-1586.073852539062	41.25545120239258	-625.7407836914062	-1458.336303710938	478.7472534179688	-419.5042114257812	-1413.444091796875	741.852783203125	-403.534912109375	-1501.833862304688	57.93233108520508	-453.3405456542969	-1449.618286132812	353.1975708007812	-435.4647827148438	-1323.501342773438	41.24704742431641	-520.235595703125	-1400.365356445312	45.09488677978516	-547.4905395507812	-1416.421630859375	49.44525146484375	-449.8027954101562	-1575.208129882812	44.78062057495117	-505.2620544433594	-1286.48095703125	755.00146484375	-343.9660034179688	
